<svg width="21" height="22" viewBox="0 0 21 22" fill="none" xmlns="http://www.w3.org/2000/svg">
<path d="M17.2366 14.0807C15.4845 14.202 14.6792 15.8437 13.7553 16.1992C13.7553 16.1992 11.7806 16.6509 10.2532 16.3267C9.21281 16.1051 8.88196 15.1222 11.0668 12.1861C11.8805 11.0945 13.7324 8.42184 16.4167 8.44903C18.741 8.32146 20.2392 6.35778 20.1123 4.01559C20.0289 2.91017 19.5178 1.88162 18.6885 1.15061C17.8592 0.41959 16.7779 0.044344 15.6765 0.105368C14.5751 0.166391 13.5413 0.658832 12.7971 1.47703C12.0528 2.29523 11.6572 3.37402 11.6953 4.48194C11.6953 6.29505 11.8305 7.14409 8.25771 10.8393C7.70628 11.383 6.7699 12.6399 4.17093 13.0728C1.35555 13.3906 -0.132256 15.302 0.00924116 17.753C0.076352 18.9277 0.604308 20.0277 1.47732 20.8118C2.35033 21.5959 3.49712 22 4.66617 21.9355C6.14149 21.8539 7.24017 20.8898 7.8998 20.1872C9.30645 18.6689 13.3495 18.3051 14.8914 20.1161C15.2328 20.5011 15.6588 20.8008 16.1356 20.9914C16.6125 21.182 17.1269 21.2582 17.6382 21.214C18.5805 21.1616 19.4635 20.7351 20.0929 20.0284C20.7224 19.3217 21.0467 18.3926 20.9946 17.4456C20.9424 16.4985 20.5181 15.6111 19.8148 14.9785C19.1116 14.3459 18.1872 14.02 17.2449 14.0724L17.2366 14.0807Z" fill="white"/>
<path d="M3.66098 7.86348C2.63339 7.76475 1.68691 7.25982 1.02975 6.45976C0.3726 5.65971 0.0586017 4.63006 0.156835 3.59733C0.255069 2.56461 0.757488 1.6134 1.55357 0.952965C2.34964 0.292526 3.37417 -0.0230386 4.40176 0.075686C5.85835 0.213708 9.84525 0.935187 10.1761 1.95781C10.4612 2.84031 7.28581 6.33269 6.52214 6.97679C6.12724 7.30734 5.67103 7.5559 5.17992 7.7081C4.6888 7.8603 4.17253 7.91311 3.66098 7.86348V7.86348Z" fill="#00B1EB"/>
</svg>
