<svg xmlns="http://www.w3.org/2000/svg" xmlns:xlink="http://www.w3.org/1999/xlink" width="88.022" height="73.587" viewBox="0 0 88.022 73.587"><defs><style>.a{fill:#e5e6e7;}.b{fill:none;stroke:#e1e2e3;}.c{fill:#271b57;stroke:#171238;}.d{fill:url(#a);}.e{fill:#fff;}</style><linearGradient id="a" x1="0.161" y1="0.5" x2="1.112" y2="0.5" gradientUnits="objectBoundingBox"><stop offset="0" stop-color="#fda435"/><stop offset="1" stop-color="#fc8d03"/></linearGradient></defs><g transform="translate(-267.552 -11.931)"><g transform="translate(268.059 12.437)"><path class="a" d="M911.651,350.384,894.6,326.025a4.055,4.055,0,0,0-5.648-1l-55.062,38.557a4.055,4.055,0,0,0-1,5.647l4.628,6.61a7.093,7.093,0,0,1,7.8,11.138l4.628,6.61a4.055,4.055,0,0,0,5.647,1l55.062-38.557a4.055,4.055,0,0,0,1-5.647" transform="translate(-832.157 -324.296)"/><path class="b" d="M911.651,350.384,894.6,326.025a4.055,4.055,0,0,0-5.648-1l-55.062,38.557a4.055,4.055,0,0,0-1,5.647l4.628,6.61a7.093,7.093,0,0,1,7.8,11.138l4.628,6.61a4.055,4.055,0,0,0,5.647,1l55.062-38.557A4.055,4.055,0,0,0,911.651,350.384Z" transform="translate(-832.157 -324.296)"/><path class="c" d="M928.84,393.952l-9.566-27.789a4.006,4.006,0,0,0-5.093-2.485l-62.8,21.63a4.008,4.008,0,0,0-2.484,5.094l2.6,7.541a7.011,7.011,0,0,1,4.374,12.706l2.6,7.541a4.007,4.007,0,0,0,5.093,2.485l62.8-21.63a4.008,4.008,0,0,0,2.484-5.094" transform="translate(-842.743 -349.397)"/></g><path class="d" d="M70.993,37.5H4a4,4,0,0,1-4-4v-7.1a7.889,7.889,0,0,0,5.92-7.645A7.889,7.889,0,0,0,0,11.1V4A4,4,0,0,1,4,0H70.993a4,4,0,0,1,4,4V33.5A4,4,0,0,1,70.993,37.5Z" transform="translate(280.582 48.022)"/><g transform="translate(296.813 71.134)"><path class="e" d="M915.54,499.253a2.451,2.451,0,0,1-2.611-1.713l1.319-.585a1.3,1.3,0,0,0,1.36.979c.421,0,.87-.217.87-.625,0-.354-.245-.571-.816-.9l-.462-.272a2.36,2.36,0,0,1-1.4-1.89,2.1,2.1,0,0,1,2.312-2.013,2.261,2.261,0,0,1,2.257,1.455l-1.346.6a.96.96,0,0,0-.993-.721c-.408,0-.748.191-.748.571,0,.3.2.53.666.8l.463.272c.748.422,1.55.993,1.55,1.945a2.247,2.247,0,0,1-2.42,2.094" transform="translate(-912.929 -490.141)"/><path class="e" d="M990.087,494.507l-.53,2.516a2.071,2.071,0,0,0,1.7.8,2.3,2.3,0,0,0,2.325-2.38,1.613,1.613,0,0,0-1.659-1.781,2.461,2.461,0,0,0-1.836.843m-1.033-2.162h1.428l-.109.5a3,3,0,0,1,1.9-.612,2.9,2.9,0,0,1,2.87,3.087,3.888,3.888,0,0,1-3.931,3.93,3.141,3.141,0,0,1-2-.639s-.1.365-.315,1.31a2.32,2.32,0,0,1-1.82,1.722Z" transform="translate(-960.458 -490.141)"/><path class="e" d="M930.722,494.507l-.53,2.516a2.071,2.071,0,0,0,1.7.8,2.3,2.3,0,0,0,2.325-2.38,1.612,1.612,0,0,0-1.659-1.781,2.46,2.46,0,0,0-1.836.843m-1.033-2.162h1.428l-.109.5a2.993,2.993,0,0,1,1.9-.612,2.9,2.9,0,0,1,2.87,3.087,3.888,3.888,0,0,1-3.931,3.93,3.14,3.14,0,0,1-2-.639s-.1.365-.316,1.31a2.32,2.32,0,0,1-1.82,1.722Z" transform="translate(-922.408 -490.141)"/><path class="e" d="M956.171,497.825a2.167,2.167,0,0,0,2.19-2.271,1.764,1.764,0,0,0-1.809-1.89,2.163,2.163,0,0,0-2.189,2.257,1.768,1.768,0,0,0,1.808,1.9m-.135,1.428a3.09,3.09,0,0,1-3.223-3.2,3.8,3.8,0,0,1,3.875-3.821,3.087,3.087,0,0,1,3.223,3.182,3.806,3.806,0,0,1-3.875,3.835" transform="translate(-938.492 -490.141)"/><path class="e" d="M1017.436,496.982l.545-2.5a2.084,2.084,0,0,0-1.7-.816,2.3,2.3,0,0,0-2.326,2.38,1.613,1.613,0,0,0,1.659,1.781,2.4,2.4,0,0,0,1.822-.843m-.272,1.659a3.077,3.077,0,0,1-1.9.612,2.9,2.9,0,0,1-2.869-3.087,3.888,3.888,0,0,1,3.93-3.93,3.1,3.1,0,0,1,1.985.653l.123-.544h1.5l-1.442,6.8h-1.429Z" transform="translate(-976.68 -490.141)"/><path class="e" d="M1036.517,499.253a2.451,2.451,0,0,1-2.611-1.713l1.319-.585a1.3,1.3,0,0,0,1.36.979c.422,0,.87-.217.87-.625,0-.354-.245-.571-.816-.9l-.462-.272a2.36,2.36,0,0,1-1.4-1.89,2.1,2.1,0,0,1,2.312-2.013,2.262,2.262,0,0,1,2.258,1.455l-1.346.6a.96.96,0,0,0-.993-.721c-.408,0-.748.191-.748.571,0,.3.2.53.666.8l.463.272c.748.422,1.55.993,1.55,1.945a2.247,2.247,0,0,1-2.421,2.094" transform="translate(-990.47 -490.141)"/><path class="e" d="M1052.121,499.253a2.451,2.451,0,0,1-2.611-1.713l1.319-.585a1.3,1.3,0,0,0,1.36.979c.421,0,.87-.217.87-.625,0-.354-.244-.571-.816-.9l-.463-.272a2.36,2.36,0,0,1-1.4-1.89,2.1,2.1,0,0,1,2.312-2.013,2.261,2.261,0,0,1,2.258,1.455l-1.346.6a.961.961,0,0,0-.993-.721c-.408,0-.748.191-.748.571,0,.3.2.53.666.8l.462.272c.748.422,1.551.993,1.551,1.945a2.247,2.247,0,0,1-2.42,2.094" transform="translate(-1000.471 -490.141)"/><path class="e" d="M978.243,489.938h1.782l.286-1.333h-1.779l.467-2.2a2.32,2.32,0,0,0-1.82,1.722c-.042.184-.079.34-.112.481h-1.34v1.333h1.006l-.652,3.1a4.255,4.255,0,0,0-.1.775c0,1.061.652,1.591,1.971,1.591h1.02l.286-1.373h-.925c-.6,0-.8-.177-.8-.585a1.782,1.782,0,0,1,.055-.422Z" transform="translate(-953.18 -486.402)"/></g></g></svg>